<?xml version="1.0" encoding="UTF-8" standalone="no"?>
<!-- Created with Inkscape (http://www.inkscape.org/) -->

<svg
   version="1.1"
   id="svg1"
   width="5.5cm"
   height="5.5cm"
   viewBox="0 0 207.87402 207.87401"
   sodipodi:docname="V.svg"
   inkscape:export-filename="M.dst"
   inkscape:export-xdpi="96"
   inkscape:export-ydpi="96"
   inkscape:version="1.4.2 (ebf0e940, 2025-05-08)"
   xmlns:inkscape="http://www.inkscape.org/namespaces/inkscape"
   xmlns:sodipodi="http://sodipodi.sourceforge.net/DTD/sodipodi-0.dtd"
   xmlns="http://www.w3.org/2000/svg"
   xmlns:svg="http://www.w3.org/2000/svg">
  <defs
     id="defs1" />
  <sodipodi:namedview
     id="namedview1"
     pagecolor="#ffffff"
     bordercolor="#000000"
     borderopacity="0.25"
     inkscape:showpageshadow="2"
     inkscape:pageopacity="0.0"
     inkscape:pagecheckerboard="0"
     inkscape:deskcolor="#d1d1d1"
     inkscape:zoom="2.6600293"
     inkscape:cx="93.420023"
     inkscape:cy="122.93098"
     inkscape:window-width="1472"
     inkscape:window-height="923"
     inkscape:window-x="0"
     inkscape:window-y="33"
     inkscape:window-maximized="0"
     inkscape:current-layer="layer1"
     inkscape:document-units="cm" />
  <g
     inkscape:groupmode="layer"
     inkscape:label="Image"
     id="g1">
    <path
       style="fill:#030303;stroke:none;stroke-width:0.130204"
       d="m 92.975994,104.67491 c -0.923241,-0.95156 -1.306228,-2.80985 -1.79683,-4.03631 -1.387232,-3.46795 -4.449132,-8.203783 -2.860245,-11.978674 0.764851,-1.817141 2.320366,-3.104767 4.266465,-3.455 0.705942,-0.127038 1.511825,0.100665 2.194163,-0.101826 0.457629,-0.135828 0.518285,-0.838914 0.331326,-1.219265 -0.225733,-0.459277 -1.068881,-0.30179 -1.48388,-0.30179 h -4.687291 -19.270055 -5.33831 c -0.481501,0 -1.472827,-0.195747 -1.651261,0.409905 -0.163026,0.553344 0.005,1.089723 0.612137,1.1449 4.12815,0.37569 7.457968,1.387863 10.40198,4.564735 2.654345,2.8643 3.956268,7.01629 5.48028,10.546445 0.473747,1.09735 1.086285,3.71414 2.044058,4.4233 0.625923,0.46343 2.403091,0.13384 3.164063,0.13384 h 8.332985 5.59873 c 0.535788,0 1.55887,0.19592 1.977151,-0.20878 1.14929,-1.11191 1.74217,-3.68131 2.42112,-5.129539 2.06534,-4.405431 4.02813,-8.858917 6.05817,-13.280712 2.45014,-5.336834 4.89643,-10.675608 7.34118,-16.014964 4.79715,-10.476976 9.03327,-21.497063 15.44755,-31.118522 2.50815,-3.762196 5.12755,-7.507076 8.55,-10.509166 4.14201,-3.633284 9.4341,-6.206415 14.71294,-7.700966 2.79426,-0.791119 5.81709,-1.320316 8.72359,-1.320316 v -1.432231 c -6.2921,0 -12.04427,0.465711 -18.0982,2.346983 -23.62477,7.341396 -31.14969,33.410512 -39.82262,53.770503 -2.82087,6.62204 -5.51217,13.299151 -8.333016,19.921063 -0.995612,2.337171 -1.956267,4.688539 -2.939203,7.030957 -0.472724,1.12653 -1.16266,2.30943 -1.376977,3.51549 m 52.862416,0.1302 h 6.11954 c 0.6056,0 1.87693,0.24074 2.38283,-0.13384 0.49084,-0.36339 0.74204,-1.4057 0.98436,-1.94944 0.69875,-1.5678 1.42526,-3.12714 2.14153,-4.68732 2.70972,-5.902298 5.3604,-11.835449 8.13407,-17.7076 3.37846,-7.152597 7.71172,-14.763276 13.43994,-20.306556 6.35821,-6.152944 15.83556,-10.217459 24.73805,-10.291145 v -1.432227 c -4.86201,0 -9.44318,0.101164 -14.19212,1.288373 -4.70813,1.17704 -9.30366,2.874356 -13.4109,5.489213 -12.00754,7.644562 -18.193,20.879022 -23.60332,33.455128 -1.54284,3.586298 -3.03264,7.198034 -4.52195,10.80685 -0.73272,1.775484 -1.76792,3.598764 -2.21203,5.468524 M 22.405971,53.374957 v 1.562434 c 1.53414,0 2.938704,0.02156 4.426904,0.446274 7.225967,2.061994 9.489431,8.869897 12.220894,15.047885 3.352688,7.583082 6.72707,15.162897 9.988958,22.785522 1.192862,2.787563 2.414781,5.568751 3.660763,8.332988 0.366635,0.81342 0.755031,2.62593 1.523244,3.12127 0.657695,0.42405 2.179578,0.13384 2.943432,0.13384 H 64.59173 C 60.672911,94.701488 56.410873,84.727024 52.557812,74.598076 c -1.558271,-4.09639 -3.857457,-8.228687 -4.861719,-12.499498 -0.652504,-2.774832 0.903743,-5.85492 3.61494,-6.843178 1.129774,-0.411811 2.334759,-0.317977 3.515482,-0.317977 V 53.374991 H 22.405971 M 6.9118121,108.71118 v 1.17185 h 0.6510107 v 4.42688 H 6.9118121 v 1.30204 h 2.9946611 c -5.14e-4,-0.7125 0.047432,-1.23747 -0.7812168,-1.30204 v -1.69264 h 3.1248826 v 1.69264 c -0.828632,0.0645 -0.780669,0.58954 -0.781216,1.30204 h 2.99466 v -1.30204 h -0.651011 v -4.42688 h 0.651011 v -1.17185 h -2.99466 v 1.17185 h 0.781216 v 1.43222 H 9.1252564 v -1.43222 h 0.7812168 v -1.17185 H 6.9118121 m 17.7076029,0 c -0.32655,1.41153 -0.887242,2.79222 -1.345424,4.1665 -0.209181,0.62744 -0.31252,1.22596 -0.998225,1.43223 v 1.30204 h 2.60406 v -1.30204 h -0.651011 c 0.315106,-1.19288 1.46533,-0.91142 2.473855,-0.91142 l 0.130189,0.91142 c -0.730467,0.12189 -0.65053,0.67063 -0.651028,1.30204 h 2.734266 l -1.779442,-5.07791 -0.658955,-1.68903 -1.858301,-0.13384 m 11.978675,0 v 1.17183 h 0.781217 v 4.42689 c -0.828633,0.0645 -0.780669,0.58953 -0.781217,1.30205 h 2.994677 c -5.3e-4,-0.63141 0.07944,-1.18013 -0.651028,-1.30205 v -1.30201 c 0.834768,0 1.734532,0.0926 2.468234,-0.38991 1.212482,-0.79732 1.186228,-2.70846 3.98e-4,-3.4988 -1.228303,-0.81868 -3.39692,-0.408 -4.812281,-0.408 m 13.541109,0 V 109.883 H 50.9204 v 4.42689 c -0.828615,0.0645 -0.780653,0.58953 -0.781217,1.30205 h 2.994678 c -5.32e-4,-0.63141 0.07944,-1.18013 -0.651011,-1.30205 v -1.30201 c 0.834751,0 1.734514,0.0926 2.468216,-0.38991 1.212498,-0.79732 1.186228,-2.70846 3.98e-4,-3.4988 -1.228304,-0.81868 -3.396903,-0.408 -4.812281,-0.408 m 13.280715,0 v 1.17183 c 1.692356,0.26335 2.60406,2.97254 2.60406,4.42689 h -0.781216 v 1.30205 h 3.124866 v -1.30205 h -0.911422 c 0,-1.46272 1.043684,-3.96896 2.604061,-4.42689 v -1.17183 h -2.994661 v 1.17183 h 0.651012 l -0.781217,1.56244 H 66.67497 L 65.893753,109.883 h 0.520806 v -1.17183 h -2.994661 m 23.566731,0 v 1.17183 h 0.651012 v 4.42689 h -0.651012 v 1.30205 c 1.33103,0 3.372991,0.3844 4.555112,-0.30823 1.059687,-0.62091 1.471817,-2.40875 0.262411,-3.07705 0.955104,-1.07482 0.845843,-2.80941 -0.651523,-3.38599 -1.165329,-0.44872 -2.926379,-0.12953 -4.166,-0.12953 m 13.410911,0 v 1.17184 h 0.78124 v 4.42689 c -0.82865,0.0645 -0.78067,0.58953 -0.78124,1.30203 h 2.99467 v -1.30203 h -0.65101 v -4.42689 h 0.65101 v -1.17184 h -2.99467 m 10.93706,0 v 1.17184 h 0.65101 v 4.42689 h -0.65101 v 1.30203 h 2.86446 v -1.30203 h -0.65101 v -1.43224 c 0.88283,0.004 1.53177,0.22491 1.76186,1.17183 0.0977,0.40175 0.0428,1.15142 0.39944,1.42862 0.41,0.31873 1.38009,0.13383 1.87499,0.13383 v -1.30203 l -1.43223,-1.82283 c 1.0926,-0.97751 1.66088,-2.92145 -0.13036,-3.6264 -1.30353,-0.51303 -3.29825,-0.14943 -4.68721,-0.14943 m 13.67131,0 v 2.08326 h 1.56244 v -0.91143 h 0.78122 v 4.42689 h -0.65101 v 1.30205 h 2.86445 v -1.30205 h -0.65102 v -4.42689 h 0.91143 v 0.91143 h 1.56243 v -2.08326 h -6.37994 m 14.19213,0 v 1.17183 h 0.651 v 4.42689 h -0.651 v 1.30205 h 2.99466 c 0,-0.71252 0.0474,-1.23748 -0.78122,-1.30205 v -1.69263 h 3.12488 v 1.69263 c -0.82863,0.0645 -0.78066,0.58953 -0.78121,1.30205 h 2.99466 v -1.30205 h -0.65102 v -4.42689 h 0.65102 v -1.17183 h -2.99466 v 1.17183 h 0.78121 v 1.43223 h -3.12488 v -1.43223 h 0.78122 v -1.17183 h -2.99466 m 15.62436,0 v 1.17183 h 0.52081 v 4.42689 h -0.52081 v 1.30205 c 1.49793,0 3.24019,0.27472 4.5552,-0.59224 2.1319,-1.40555 1.87721,-4.86551 -0.38871,-5.99891 -1.19156,-0.59599 -2.86806,-0.30962 -4.16649,-0.30962 m 13.67131,5.59872 v 1.30205 h 2.60406 v -1.30205 h -0.65102 l 0.13018,-0.91141 c 1.00853,0 2.15875,-0.28148 2.47386,0.91141 h -0.65102 v 1.30205 h 2.60408 v -1.30205 h -0.52082 l -1.69263,-5.59872 c -0.50082,0 -1.44202,-0.18092 -1.86164,0.13384 -1.39315,1.04487 -0.62197,4.894 -2.43506,5.4649 m 14.06191,-5.59873 v 1.17185 c 1.66439,0.4711 2.47385,2.90905 2.47385,4.42688 -0.82865,0.0645 -0.78067,0.58954 -0.78121,1.30204 h 3.12488 v -1.30204 h -0.78123 c 0,-1.63862 0.88143,-3.67796 2.47387,-4.42688 v -1.17185 h -2.86448 v 1.17185 h 0.52082 l -0.78122,1.56242 -1.04163,-1.56242 h 0.65103 v -1.17185 h -2.99468 m -143.613909,3.12488 v -1.95303 c 2.059938,0.0172 2.059938,1.93577 0,1.95303 m 13.541125,0 v -1.95303 c 2.059922,0.0172 2.059938,1.93577 0,1.95303 m 36.717239,-0.39061 v -1.56242 c 0.587598,0 2.638168,0.55773 1.375767,1.42861 -0.351587,0.24252 -0.970412,0.13384 -1.375767,0.13384 m 24.347955,0.13018 v -1.69263 c 0.62465,0 3.18121,0.57578 1.65637,1.53911 -0.4396,0.27773 -1.15905,0.15357 -1.65637,0.15357 m 43.3576,2.73425 v -4.42688 c 3.06489,0.0654 3.08084,4.42451 0,4.42688 m 14.84315,-4.2967 0.651,2.21346 h -1.30201 l 0.65101,-2.21346 m -146.217973,0.13019 0.651012,2.08326 h -1.302023 l 0.651011,-2.08326 m 63.669268,4.16649 v -1.56243 c 2.112411,0 2.112436,1.56243 0,1.56243 m -8.593388,11.8485 h -1.562451 v 1.30201 c 0.804012,0.38946 1.251598,1.15694 2.213463,1.27791 1.81956,0.22887 3.924186,-1.43205 2.704526,-3.3489 -0.551145,-0.86617 -2.843117,-0.83559 -2.97517,-1.8383 -0.148435,-1.12673 1.568426,-0.34471 1.702863,0.52402 1.307713,0 1.692496,-0.0444 1.692646,-1.43223 -0.866714,-0.2427 -1.399957,-0.99473 -2.343658,-1.13266 -1.793972,-0.26221 -3.748625,1.40395 -2.512527,3.21389 0.509302,0.74571 2.958703,1.06039 2.935486,1.95496 -0.03481,1.34272 -1.665874,0.20242 -1.855178,-0.5207 m -30.0769,-4.42692 v 1.17182 c 1.857241,0.2954 1.395708,4.33543 2.485,5.52018 0.378145,0.41125 1.431515,0.20877 1.941905,0.20877 0.33748,-1.45875 0.931754,-2.87083 1.387416,-4.29671 0.220226,-0.68913 0.281522,-1.30422 1.086439,-1.43224 v -1.17182 H 54.4358 v 1.17182 h 0.781216 L 54.0452,126.8095 h -0.13019 l -1.041627,-3.90611 h 0.651011 v -1.17182 h -2.994661 m 14.322326,0 v 1.17182 c 1.691329,0.2735 2.473855,3.00636 2.473855,4.42691 h -0.65101 v 1.30204 h 2.994659 v -1.30204 h -0.781216 c 0,-1.52894 0.95013,-3.95879 2.604061,-4.42691 v -1.17182 h -2.994661 v 1.17182 h 0.651011 l -0.911422,1.56244 h -0.130189 l -0.781217,-1.56244 h 0.520822 v -1.17182 h -2.994677 m 27.342624,0 v 1.17182 h 0.651012 v 4.42691 h -0.651012 v 1.30204 h 2.994683 V 127.3303 H 94.40815 v -1.69264 h 3.124877 v 1.69264 h -0.651012 v 1.30204 h 2.99467 c -5.24e-4,-0.7125 0.04741,-1.23748 -0.781219,-1.30204 v -4.42691 h 0.781219 v -1.17182 h -2.99467 v 1.17182 h 0.651012 v 1.43224 H 94.40815 v -1.43224 h 0.781232 v -1.17182 h -2.994683 m 15.754581,0 v 1.17182 c 1.17259,0.35598 0.65102,3.39106 0.65102,4.42691 -0.73046,0.12189 -0.65054,0.67063 -0.65102,1.30204 h 2.60406 v -1.30204 h -0.52083 v -3.12487 h 0.1302 c 0.41396,1.13082 1.72957,3.66483 2.77667,4.29308 0.41087,0.24652 1.05949,0.13384 1.52002,0.13384 v -5.72894 h 0.52081 v -1.17181 h -2.60406 v 1.17181 h 0.52083 v 3.12488 c -0.69933,-1.03663 -1.73761,-3.72108 -2.89182,-4.21813 -0.56324,-0.24255 -1.45035,-0.0786 -2.0559,-0.0786 m 14.58274,5.59872 v 1.30203 h 2.60405 v -1.30203 h -0.65102 l 0.13019,-0.91143 c 1.00852,0 2.15875,-0.28145 2.47386,0.91143 h -0.65101 v 1.30203 h 2.60406 v -1.30203 h -0.52083 l -1.69263,-5.59872 c -0.5008,0 -1.44197,-0.18091 -1.86162,0.13384 -1.39316,1.04485 -0.62195,4.89398 -2.43506,5.46489 m 13.9317,-5.59872 v 1.17182 c 0.76652,0.12504 0.86485,0.7712 1.08503,1.43224 0.36138,1.08492 0.57737,3.26436 1.36983,4.08793 0.3949,0.4104 1.44936,0.20877 1.97205,0.20877 0.29368,-1.41897 0.84442,-2.79365 1.30201,-4.1665 0.21859,-0.65577 0.31835,-1.34485 1.04164,-1.56244 v -1.17182 h -2.86445 v 1.17182 h 0.651 l -1.04163,3.9061 h -0.13019 l -1.17182,-3.9061 h 0.78122 v -1.17182 h -2.99467 m 14.58273,0 v 1.17182 h 0.65101 v 4.4269 h -0.65101 v 1.30204 h 2.99468 v -1.30204 h -0.78123 v -4.4269 h 0.78123 v -1.17182 h -2.99468 m -25.25937,1.30203 0.65101,2.21346 h -1.30203 l 0.65102,-2.21346 m -59.242373,9.89543 c 0.619036,2.26333 1.860641,4.50188 2.824686,6.64035 1.732591,3.84327 3.410817,7.71733 5.081133,11.58806 0.60061,1.39186 1.221538,2.77493 1.822844,4.1665 0.273911,0.63392 0.506095,1.27622 1.331062,1.15193 0.638225,-0.0962 0.584756,-0.91027 0.684561,-1.41233 0.291342,-1.46539 0.77089,-2.9014 1.301026,-4.2967 2.295141,-6.04055 5.711946,-11.74349 7.78718,-17.83781 h -4.426914 l -1.771591,0.13384 -0.936552,1.81921 -1.848964,4.4269 -1.796823,-4.4269 -0.872232,-1.81921 -2.539066,-0.13384 h -6.64035 m 27.082221,0 c 0.261837,1.4734 1.174224,2.92875 1.767599,4.2967 1.357777,3.13024 2.730887,6.25368 4.109723,9.37462 4.09754,9.27457 8.10502,18.58892 12.20272,27.86343 1.35966,3.07742 2.72934,6.15193 4.05457,9.24441 0.60708,1.41668 0.85092,2.99332 2.60396,2.99468 0.45786,-5.79205 3.95652,-11.73528 6.33975,-16.92641 4.01974,-8.75574 8.0813,-17.50012 12.0008,-26.30099 0.94943,-2.1318 1.90206,-4.27829 2.9162,-6.37994 0.61918,-1.28316 1.53887,-2.76236 1.78918,-4.1665 h -5.33832 l -1.99877,0.13384 -1.21972,2.60043 -2.93762,7.03096 -7.25338,17.31701 -4.03771,9.50481 -10.62459,-26.69161 -2.81233,-7.03096 -1.2303,-2.73064 -2.77997,-0.13384 z"
       id="path1" />
  </g>
  <g
     inkscape:groupmode="layer"
     id="layer1"
     inkscape:label="Image 1" />
</svg>
